<svg width="256" height="256" xmlns="http://www.w3.org/2000/svg">
 <!-- Created with Method Draw - http://github.com/duopixel/Method-Draw/ -->
 <defs>
  <linearGradient y2="0" x2="1" y1="0" x1="0" id="svg_97">
   <stop offset="0" stop-opacity="0.99609" stop-color="#5f94d8"/>
   <stop offset="1" stop-opacity="0.99609" stop-color="#005fbf"/>
  </linearGradient>
 </defs>
 <g>
  <title>background</title>
  <rect fill="none" id="canvas_background" height="258" width="258" y="-1" x="-1"/>
  <g display="none" overflow="visible" y="0" x="0" height="100%" width="100%" id="canvasGrid">
   <rect fill="url(#gridpattern)" stroke-width="0" y="0" x="0" height="100%" width="100%"/>
  </g>
 </g>
 <g>
  <title>Layer 1</title>
  <g stroke="null" id="svg_95">
   <g stroke="null" transform="matrix(0.4924315964494443,0,0,0.49829095923686895,0,0) " id="svg_5">
    <g stroke="null" id="svg_6">
     <path fill="url(#svg_97)" stroke="null" id="svg_7" d="m477.867,102.4c-18.825,0 -34.133,15.309 -34.133,34.133s15.309,34.133 34.133,34.133s34.133,-15.308 34.133,-34.133c0,-18.824 -15.309,-34.133 -34.133,-34.133zm0,51.2c-9.412,0 -17.067,-7.654 -17.067,-17.067c0,-9.412 7.654,-17.067 17.067,-17.067s17.067,7.654 17.067,17.067c-0.001,9.413 -7.655,17.067 -17.067,17.067z"/>
    </g>
   </g>
   <g stroke="null" transform="matrix(0.4924315964494443,0,0,0.49829095923686895,0,0) " id="svg_8">
    <g stroke="null" id="svg_9">
     <path fill="url(#svg_97)" stroke="null" id="svg_10" d="m34.133,384c-18.824,0 -34.133,15.309 -34.133,34.133s15.309,34.133 34.133,34.133c18.825,0 34.133,-15.309 34.133,-34.133s-15.308,-34.133 -34.133,-34.133zm0,51.2c-9.412,0 -17.067,-7.654 -17.067,-17.067s7.654,-17.067 17.067,-17.067c9.412,0 17.067,7.654 17.067,17.067s-7.654,17.067 -17.067,17.067z"/>
    </g>
   </g>
   <g stroke="null" transform="matrix(0.4924315964494443,0,0,0.49829095923686895,0,0) " id="svg_11">
    <g stroke="null" id="svg_12">
     <path fill="url(#svg_97)" stroke="null" id="svg_13" d="m461.321,113.186l-73.617,-35.541c-4.25,-2.057 -9.344,-0.265 -11.392,3.977c-2.048,4.241 -0.265,9.344 3.977,11.392l73.617,35.541c1.195,0.58 2.458,0.853 3.703,0.853c3.174,0 6.221,-1.775 7.688,-4.83c2.048,-4.241 0.265,-9.344 -3.976,-11.392z"/>
    </g>
   </g>
   <g stroke="null" transform="matrix(0.4924315964494443,0,0,0.49829095923686895,0,0) " id="svg_14">
    <g stroke="null" id="svg_15">
     <path fill="url(#svg_97)" stroke="null" id="svg_16" d="m384,443.733c-18.825,0 -34.133,15.309 -34.133,34.133s15.308,34.134 34.133,34.134c18.825,0 34.133,-15.309 34.133,-34.133s-15.308,-34.134 -34.133,-34.134zm0,51.2c-9.412,0 -17.067,-7.654 -17.067,-17.067s7.655,-17.066 17.067,-17.066c9.412,0 17.067,7.654 17.067,17.067s-7.655,17.066 -17.067,17.066z"/>
    </g>
   </g>
   <g stroke="null" transform="matrix(0.4924315964494443,0,0,0.49829095923686895,0,0) " id="svg_17">
    <g stroke="null" id="svg_18">
     <path fill="url(#svg_97)" stroke="null" id="svg_19" d="m367.454,454.52l-73.617,-35.541c-4.25,-2.057 -9.344,-0.273 -11.392,3.977c-2.048,4.241 -0.265,9.344 3.977,11.392l73.617,35.541c1.195,0.58 2.458,0.853 3.703,0.853c3.174,0 6.221,-1.775 7.689,-4.83c2.047,-4.242 0.264,-9.344 -3.977,-11.392z"/>
    </g>
   </g>
   <g stroke="null" transform="matrix(0.4924315964494443,0,0,0.49829095923686895,0,0) " id="svg_20">
    <g stroke="null" id="svg_21">
     <path fill="url(#svg_97)" stroke="null" id="svg_22" d="m256,230.4c-18.825,0 -34.133,15.309 -34.133,34.133c0,18.825 15.309,34.133 34.133,34.133c18.825,0 34.133,-15.309 34.133,-34.133c0,-18.824 -15.308,-34.133 -34.133,-34.133zm0,51.2c-9.412,0 -17.067,-7.654 -17.067,-17.067c0,-9.412 7.654,-17.067 17.067,-17.067c9.412,0 17.067,7.654 17.067,17.067c0,9.413 -7.655,17.067 -17.067,17.067z"/>
    </g>
   </g>
   <g stroke="null" transform="matrix(0.4924315964494443,0,0,0.49829095923686895,0,0) " id="svg_23">
    <g stroke="null" id="svg_24">
     <path fill="url(#svg_97)" stroke="null" id="svg_25" d="m240.998,242.142l-56.55,-44.075c-3.721,-2.876 -9.079,-2.236 -11.981,1.485c-2.893,3.721 -2.236,9.079 1.485,11.981l56.55,44.075c1.562,1.212 3.405,1.801 5.24,1.801c2.543,0 5.052,-1.126 6.741,-3.285c2.893,-3.722 2.236,-9.081 -1.485,-11.982z"/>
    </g>
   </g>
   <g stroke="null" transform="matrix(0.4924315964494443,0,0,0.49829095923686895,0,0) " id="svg_26">
    <g stroke="null" id="svg_27">
     <path fill="url(#svg_97)" stroke="null" id="svg_28" d="m409.6,221.867c-51.755,0 -93.867,42.112 -93.867,93.867c0,51.755 42.112,93.867 93.867,93.867c51.755,0 93.867,-42.112 93.867,-93.867c0,-51.755 -42.112,-93.867 -93.867,-93.867zm0,170.666c-42.351,0 -76.8,-34.449 -76.8,-76.8s34.449,-76.8 76.8,-76.8s76.8,34.449 76.8,76.8s-34.449,76.8 -76.8,76.8z"/>
    </g>
   </g>
   <g stroke="null" transform="matrix(0.4924315964494443,0,0,0.49829095923686895,0,0) " id="svg_29">
    <g stroke="null" id="svg_30">
     <path fill="url(#svg_97)" stroke="null" id="svg_31" d="m409.6,256c-18.825,0 -34.133,15.309 -34.133,34.133c0,18.825 15.309,34.133 34.133,34.133c18.825,0 34.133,-15.309 34.133,-34.133s-15.308,-34.133 -34.133,-34.133zm0,51.2c-9.412,0 -17.067,-7.654 -17.067,-17.067c0,-9.412 7.654,-17.067 17.067,-17.067c9.412,0 17.067,7.654 17.067,17.067c0,9.413 -7.655,17.067 -17.067,17.067z"/>
    </g>
   </g>
   <g stroke="null" transform="matrix(0.4924315964494443,0,0,0.49829095923686895,0,0) " id="svg_32">
    <g stroke="null" id="svg_33">
     <path fill="url(#svg_97)" stroke="null" id="svg_34" d="m434.355,341.333l-49.51,0c-14.583,0 -26.445,11.546 -26.445,25.728l0,22.494c0,3.046 1.621,5.862 4.258,7.39c14.302,8.277 30.532,12.655 46.942,12.655s32.64,-4.378 46.942,-12.655c2.637,-1.519 4.258,-4.344 4.258,-7.381l0,-22.494c0,-14.191 -11.861,-25.737 -26.445,-25.737zm9.378,43.136c-21.239,10.581 -47.027,10.581 -68.267,0l0,-17.399c0,-4.779 4.207,-8.67 9.378,-8.67l49.51,0c5.171,0 9.378,3.891 9.378,8.67l0,17.399l0.001,0z"/>
    </g>
   </g>
   <g stroke="null" transform="matrix(0.4924315964494443,0,0,0.49829095923686895,0,0) " id="svg_35">
    <g stroke="null" id="svg_36">
     <path fill="url(#svg_97)" stroke="null" id="svg_37" d="m204.8,324.267c-51.755,0 -93.867,42.112 -93.867,93.867s42.112,93.866 93.867,93.866c51.755,0 93.867,-42.112 93.867,-93.867s-42.112,-93.866 -93.867,-93.866zm0,170.666c-42.351,0 -76.8,-34.449 -76.8,-76.8s34.449,-76.8 76.8,-76.8c42.351,0 76.8,34.449 76.8,76.8s-34.449,76.8 -76.8,76.8z"/>
    </g>
   </g>
   <g stroke="null" transform="matrix(0.4924315964494443,0,0,0.49829095923686895,0,0) " id="svg_38">
    <g stroke="null" id="svg_39">
     <path fill="url(#svg_97)" stroke="null" id="svg_40" d="m204.8,358.4c-18.825,0 -34.133,15.309 -34.133,34.133c0,18.825 15.309,34.133 34.133,34.133s34.133,-15.309 34.133,-34.133c0,-18.824 -15.308,-34.133 -34.133,-34.133zm0,51.2c-9.412,0 -17.067,-7.654 -17.067,-17.067c0,-9.412 7.654,-17.067 17.067,-17.067c9.412,0 17.067,7.654 17.067,17.067c0,9.413 -7.655,17.067 -17.067,17.067z"/>
    </g>
   </g>
   <g stroke="null" transform="matrix(0.4924315964494443,0,0,0.49829095923686895,0,0) " id="svg_41">
    <g stroke="null" id="svg_42">
     <path fill="url(#svg_97)" stroke="null" id="svg_43" d="m229.555,443.733l-49.51,0c-14.583,0 -26.445,11.546 -26.445,25.728l0,22.494c0,3.046 1.621,5.862 4.258,7.39c14.302,8.277 30.532,12.655 46.942,12.655s32.64,-4.378 46.942,-12.655c2.637,-1.519 4.258,-4.343 4.258,-7.381l0,-22.494c0,-14.191 -11.861,-25.737 -26.445,-25.737zm9.378,43.136c-21.24,10.581 -47.027,10.581 -68.267,0l0,-17.399c0,-4.779 4.207,-8.67 9.378,-8.67l49.51,0c5.171,0 9.378,3.891 9.378,8.67l0,17.399l0.001,0z"/>
    </g>
   </g>
   <g stroke="null" transform="matrix(0.4924315964494443,0,0,0.49829095923686895,0,0) " id="svg_44">
    <g stroke="null" id="svg_45">
     <path fill="url(#svg_97)" stroke="null" id="svg_46" d="m93.867,110.933c-51.755,0 -93.867,42.112 -93.867,93.867c0,51.755 42.112,93.867 93.867,93.867c51.755,0 93.867,-42.112 93.867,-93.867c-0.001,-51.755 -42.113,-93.867 -93.867,-93.867zm0,170.667c-42.351,0 -76.8,-34.449 -76.8,-76.8c0,-42.351 34.449,-76.8 76.8,-76.8c42.351,0 76.8,34.449 76.8,76.8c0,42.351 -34.449,76.8 -76.8,76.8z"/>
    </g>
   </g>
   <g stroke="null" transform="matrix(0.4924315964494443,0,0,0.49829095923686895,0,0) " id="svg_47">
    <g stroke="null" id="svg_48">
     <path fill="url(#svg_97)" stroke="null" id="svg_49" d="m93.867,145.067c-18.825,0 -34.133,15.309 -34.133,34.133s15.309,34.133 34.133,34.133c18.825,0 34.133,-15.309 34.133,-34.133s-15.309,-34.133 -34.133,-34.133zm0,51.2c-9.412,0 -17.067,-7.654 -17.067,-17.067s7.654,-17.067 17.067,-17.067c9.412,0 17.067,7.654 17.067,17.067s-7.655,17.067 -17.067,17.067z"/>
    </g>
   </g>
   <g stroke="null" transform="matrix(0.4924315964494443,0,0,0.49829095923686895,0,0) " id="svg_50">
    <g stroke="null" id="svg_51">
     <path fill="url(#svg_97)" stroke="null" id="svg_52" d="m118.622,230.4l-49.51,0c-14.583,0 -26.445,11.546 -26.445,25.728l0,22.494c0,3.046 1.621,5.862 4.258,7.39c14.302,8.277 30.532,12.655 46.942,12.655c16.41,0 32.64,-4.378 46.942,-12.655c2.637,-1.519 4.258,-4.344 4.258,-7.381l0,-22.494c0,-14.191 -11.862,-25.737 -26.445,-25.737zm9.378,43.136c-21.239,10.581 -47.027,10.581 -68.267,0l0,-17.399c0,-4.779 4.207,-8.67 9.378,-8.67l49.51,0c5.171,0 9.378,3.891 9.378,8.67l0,17.399l0.001,0z"/>
    </g>
   </g>
   <g stroke="null" transform="matrix(0.4924315964494443,0,0,0.49829095923686895,0,0) " id="svg_53">
    <g stroke="null" id="svg_54">
     <path fill="url(#svg_97)" stroke="null" id="svg_55" d="m298.667,0c-51.755,0 -93.867,42.112 -93.867,93.867c0,51.755 42.112,93.867 93.867,93.867c51.755,0 93.867,-42.112 93.867,-93.867c-0.001,-51.755 -42.113,-93.867 -93.867,-93.867zm0,170.667c-42.351,0 -76.8,-34.449 -76.8,-76.8c0,-42.351 34.449,-76.8 76.8,-76.8s76.8,34.449 76.8,76.8c0,42.351 -34.449,76.8 -76.8,76.8z"/>
    </g>
   </g>
   <g stroke="null" transform="matrix(0.4924315964494443,0,0,0.49829095923686895,0,0) " id="svg_56">
    <g stroke="null" id="svg_57">
     <path fill="url(#svg_97)" stroke="null" id="svg_58" d="m298.667,34.133c-18.825,0 -34.133,15.309 -34.133,34.133s15.309,34.133 34.133,34.133s34.133,-15.308 34.133,-34.132s-15.309,-34.134 -34.133,-34.134zm0,51.2c-9.412,0 -17.067,-7.654 -17.067,-17.067c0,-9.412 7.654,-17.067 17.067,-17.067s17.067,7.654 17.067,17.067c-0.001,9.413 -7.655,17.067 -17.067,17.067z"/>
    </g>
   </g>
   <g stroke="null" transform="matrix(0.4924315964494443,0,0,0.49829095923686895,0,0) " id="svg_59">
    <g stroke="null" id="svg_60">
     <path fill="url(#svg_97)" stroke="null" id="svg_61" d="m323.422,119.467l-49.51,0c-14.583,0 -26.445,11.546 -26.445,25.728l0,22.494c0,3.046 1.621,5.862 4.258,7.39c14.302,8.277 30.532,12.655 46.942,12.655s32.64,-4.378 46.942,-12.655c2.637,-1.519 4.258,-4.344 4.258,-7.381l0,-22.494c0,-14.192 -11.862,-25.737 -26.445,-25.737zm9.378,43.136c-21.239,10.581 -47.027,10.581 -68.267,0l0,-17.399c0,-4.779 4.207,-8.67 9.378,-8.67l49.51,0c5.171,0 9.378,3.891 9.378,8.67l0,17.399l0.001,0z"/>
    </g>
   </g>
   <g stroke="null" transform="matrix(0.4924315964494443,0,0,0.49829095923686895,0,0) " id="svg_62">
    <g stroke="null" id="svg_63">
     <path fill="url(#svg_97)" stroke="null" id="svg_64" d="m219.827,88.311c-3.063,-3.567 -8.448,-3.994 -12.032,-0.93l-59.136,50.603c-3.584,3.063 -4.002,8.448 -0.939,12.032c1.69,1.971 4.079,2.987 6.485,2.987c1.963,0 3.934,-0.674 5.547,-2.057l59.136,-50.603c3.585,-3.063 4.003,-8.448 0.939,-12.032z"/>
    </g>
   </g>
   <g stroke="null" transform="matrix(0.4924315964494443,0,0,0.49829095923686895,0,0) " id="svg_65">
    <g stroke="null" id="svg_66">
     <path fill="url(#svg_97)" stroke="null" id="svg_67" d="m407.893,225.289l-51.2,-68.267c-2.825,-3.78 -8.175,-4.523 -11.947,-1.707c-3.772,2.825 -4.531,8.175 -1.707,11.938l51.2,68.267c1.681,2.236 4.241,3.413 6.835,3.413c1.775,0 3.576,-0.555 5.112,-1.707c3.772,-2.824 4.532,-8.174 1.707,-11.937z"/>
    </g>
   </g>
   <g stroke="null" transform="matrix(0.4924315964494443,0,0,0.49829095923686895,0,0) " id="svg_68">
    <g stroke="null" id="svg_69">
     <path fill="url(#svg_97)" stroke="null" id="svg_70" d="m337.86,343.953c-2.825,-3.772 -8.175,-4.531 -11.947,-1.707l-47.667,35.746c-3.772,2.825 -4.531,8.175 -1.707,11.938c1.681,2.236 4.241,3.413 6.835,3.413c1.783,0 3.575,-0.563 5.112,-1.707l47.667,-35.746c3.772,-2.823 4.532,-8.174 1.707,-11.937z"/>
    </g>
   </g>
   <g stroke="null" transform="matrix(0.4924315964494443,0,0,0.49829095923686895,0,0) " id="svg_71">
    <g stroke="null" id="svg_72">
     <path fill="url(#svg_97)" stroke="null" id="svg_73" d="m119.467,409.6l-59.734,0c-4.71,0 -8.533,3.814 -8.533,8.533s3.823,8.533 8.533,8.533l59.733,0c4.71,0 8.533,-3.814 8.533,-8.533s-3.822,-8.533 -8.532,-8.533z"/>
    </g>
   </g>
   <g stroke="null" transform="matrix(0.4924315964494443,0,0,0.49829095923686895,0,0) " id="svg_74">
    <g stroke="null" id="svg_75">
     <path fill="url(#svg_97)" stroke="null" id="svg_76" d="m93.867,0c-18.825,0 -34.134,15.309 -34.134,34.133c0,18.825 15.309,34.133 34.133,34.133c18.825,0 34.133,-15.309 34.133,-34.133c0.001,-18.824 -15.308,-34.133 -34.132,-34.133zm0,51.2c-9.412,0 -17.067,-7.654 -17.067,-17.067c0,-9.412 7.654,-17.067 17.067,-17.067c9.412,0 17.067,7.654 17.067,17.067c-0.001,9.413 -7.655,17.067 -17.067,17.067z"/>
    </g>
   </g>
   <g stroke="null" transform="matrix(0.4924315964494443,0,0,0.49829095923686895,0,0) " id="svg_77">
    <g stroke="null" id="svg_78">
     <path fill="url(#svg_97)" stroke="null" id="svg_79" d="m93.867,51.2c-4.71,0 -8.533,3.814 -8.533,8.533l0,59.733c0,4.719 3.823,8.533 8.533,8.533c4.71,0 8.533,-3.814 8.533,-8.533l0,-59.733c0,-4.719 -3.823,-8.533 -8.533,-8.533z"/>
    </g>
   </g>
   <g stroke="null" transform="matrix(0.4924315964494443,0,0,0.49829095923686895,0,0) " id="svg_80"/>
   <g stroke="null" transform="matrix(0.4924315964494443,0,0,0.49829095923686895,0,0) " id="svg_81"/>
   <g stroke="null" transform="matrix(0.4924315964494443,0,0,0.49829095923686895,0,0) " id="svg_82"/>
   <g stroke="null" transform="matrix(0.4924315964494443,0,0,0.49829095923686895,0,0) " id="svg_83"/>
   <g stroke="null" transform="matrix(0.4924315964494443,0,0,0.49829095923686895,0,0) " id="svg_84"/>
   <g stroke="null" transform="matrix(0.4924315964494443,0,0,0.49829095923686895,0,0) " id="svg_85"/>
   <g stroke="null" transform="matrix(0.4924315964494443,0,0,0.49829095923686895,0,0) " id="svg_86"/>
   <g stroke="null" transform="matrix(0.4924315964494443,0,0,0.49829095923686895,0,0) " id="svg_87"/>
   <g stroke="null" transform="matrix(0.4924315964494443,0,0,0.49829095923686895,0,0) " id="svg_88"/>
   <g stroke="null" transform="matrix(0.4924315964494443,0,0,0.49829095923686895,0,0) " id="svg_89"/>
   <g stroke="null" transform="matrix(0.4924315964494443,0,0,0.49829095923686895,0,0) " id="svg_90"/>
   <g stroke="null" transform="matrix(0.4924315964494443,0,0,0.49829095923686895,0,0) " id="svg_91"/>
   <g stroke="null" transform="matrix(0.4924315964494443,0,0,0.49829095923686895,0,0) " id="svg_92"/>
   <g stroke="null" transform="matrix(0.4924315964494443,0,0,0.49829095923686895,0,0) " id="svg_93"/>
   <g stroke="null" transform="matrix(0.4924315964494443,0,0,0.49829095923686895,0,0) " id="svg_94"/>
  </g>
 </g>
</svg>